# xmcd
#
# Track frame offsets:
#	150
#	15478
#	30195
#	46533
#	61377
#	76308
#	92604
#	107518
#	123308
#	139065
#	154221
#	170286
#
# Disc length: 2462 seconds
#
# Revision: 0
# Processed by: cddbd v1.5.2PL0 Copyright (c) Steve Scherf et al.
# Submitted via: EasyCDDAExtractor 16.0.6.1
#
DISCID=80099c0c
DTITLE=Συλλογικός δίσκος - Τσιτσάνης 1 Ανέκδοτα 78 στροφών
DYEAR=2005
DGENRE=Ποικίλη
TTITLE0=Τσαουσάκης Πρόδρομος-Τσιτσάνης Βασίλης - Κάτσε φρόνιμα γκρινιάρα [1947
TTITLE0=, χασάπικο,  Β. Τσιτσάνη]
TTITLE1=Στάμου Ρένα-Τσαουσάκης Πρόδρομος - Με λες μπεκρή και μπατηράκι [1950, 
TTITLE1=Β. Τσιτσάνη]
TTITLE2=Μπέλλου Σωτηρία-Τσιτσάνης Βασίλης - Η θεατρίνα [1948, χασάπικο, Β. Τσι
TTITLE2=τσάνη]
TTITLE3=Τσαουσάκης Πρόδρομος-Νίνου Μαρίκα-Τσιτσάνης Β. - Καθαρίζω για μένα και
TTITLE3=για πάρτη σου [1949, ζεϊμπέκικο, Β. Τσιτσάνη]
TTITLE4=Γεωργακοπούλου Ιωάννα-Τσιτσάνης Βασίλης - Πάρε με Μάρω, πάρε με [1948,
TTITLE4=συρτό, Β. Τσιτσάνη]
TTITLE5=Χρήστου Μήτσος-Μαρκοπούλου Ευαγγελία - Τα λερωμένα τ' άπλυτα [1952, ζε
TTITLE5=ϊμπέκικο, Β. Τσιτσάνη]
TTITLE6=Τσαουσάκης Πρόδρομος-Νίνου Μαρίκα - Ο Αντώνης ο τεμπέλης [1950, χασάπι
TTITLE6=κο, Β. Τσιτσάνη]
TTITLE7=Πολυμέρης Φώτης-Τσιτσάνης Βασίλης - Σκλάβα του πασά [1947, οριεντάλ, Β
TTITLE7=Τσιτσάνη]
TTITLE8=Μπέλλου Σωτηρία-Τσιτσάνης Βασίλης - Η βδομάδα [1948, ζεϊμπέκικο, Β. Τσ
TTITLE8=ιτσάνη]
TTITLE9=Τσαουσάκης Πρόδρομος-Νίνου Μαρίκα-Τσιτσάνης Β. - Τα μοντέρνα κορίτσια 
TTITLE9=[1949, χασάπικο, Β. Τσιτσάνη]
TTITLE10=Χρήστου Μήτσος-Μαρκοπούλου Ευαγγελία - Ξυπνώ και βλέπω σίδερα [1952, 
TTITLE10=ζεϊμπέκικο, Β. Τσιτσάνη]
TTITLE11=Περπινιάδης Στελλάκης - Τι θέλεις από μένα [1938, χασάπικο, Β. Τσιτσά
TTITLE11=νη]
EXTD=
EXTT0=
EXTT1=
EXTT2=
EXTT3=
EXTT4=
EXTT5=
EXTT6=
EXTT7=
EXTT8=
EXTT9=
EXTT10=
EXTT11=
PLAYORDER=
